<?xml version="1.0" standalone="no"?>
<!DOCTYPE svg PUBLIC "-//W3C//DTD SVG 20010904//EN"
 "http://www.w3.org/TR/2001/REC-SVG-20010904/DTD/svg10.dtd">
<svg version="1.0" xmlns="http://www.w3.org/2000/svg"
 width="500.000000pt" height="311.000000pt" viewBox="0 0 500.000000 311.000000"
 preserveAspectRatio="xMidYMid meet">

<g transform="translate(0.000000,311.000000) scale(0.100000,-0.100000)"
fill="#000000" stroke="none">
<path d="M2279 3075 c-536 -84 -978 -424 -1190 -915 -22 -50 -39 -92 -39 -95
0 -3 14 -5 30 -5 17 0 30 5 30 13 0 26 112 242 172 330 84 123 266 305 387
385 225 150 467 234 724 250 344 23 652 -59 938 -249 120 -80 303 -262 386
-384 62 -93 141 -241 162 -307 11 -33 17 -38 42 -38 16 0 29 1 29 3 0 2 -12
32 -26 67 -179 441 -565 785 -1017 905 -202 54 -440 69 -628 40z"/>
<path d="M1460 1871 c-15 -29 -12 -56 8 -74 21 -19 45 -21 73 -7 22 12 27 68
7 88 -20 20 -76 15 -88 -7z"/>
<path d="M1872 1878 c-18 -18 -14 -63 6 -81 38 -35 92 -10 92 42 0 35 -17 51
-55 51 -17 0 -36 -5 -43 -12z"/>
<path d="M3810 1728 c-112 -32 -163 -162 -107 -269 33 -62 90 -93 173 -91 51
0 108 17 132 37 2 2 -4 17 -13 35 -15 28 -20 31 -43 24 -15 -5 -51 -9 -80 -9
-45 0 -57 4 -73 24 -38 47 -30 51 111 51 72 0 130 2 130 4 0 31 -25 115 -41
137 -37 52 -120 78 -189 57z m94 -89 c47 -37 35 -49 -49 -49 -41 0 -75 3 -75
6 0 16 24 46 43 54 35 14 52 12 81 -11z"/>
<path d="M1042 1712 c-29 -11 -55 -22 -58 -25 -3 -3 2 -19 10 -36 14 -27 19
-29 42 -21 33 13 100 13 125 0 10 -6 19 -20 19 -30 0 -18 -7 -20 -67 -20 -83
0 -112 -14 -136 -63 -15 -31 -17 -43 -7 -71 6 -18 20 -42 31 -52 24 -22 126
-32 158 -15 15 8 21 8 21 1 0 -7 25 -10 73 -8 l72 3 3 43 c3 39 1 42 -22 42
-26 0 -26 1 -26 80 0 133 -31 177 -132 186 -36 3 -69 -1 -106 -14z m138 -220
c0 -21 -7 -32 -25 -40 -56 -26 -116 -1 -95 38 13 23 25 28 78 29 40 1 42 -1
42 -27z"/>
<path d="M2277 1711 c-29 -15 -37 -16 -37 -5 0 11 -18 14 -80 14 l-80 0 0 -45
c0 -41 2 -45 25 -45 25 0 25 -1 25 -85 0 -84 0 -85 -25 -85 -23 0 -25 -4 -25
-45 l0 -45 105 0 105 0 0 45 c0 41 -2 45 -25 45 -24 0 -25 2 -25 74 0 66 3 77
22 90 31 22 64 20 88 -4 18 -18 20 -33 20 -135 l0 -115 80 0 80 0 0 45 c0 41
-2 45 -25 45 -24 0 -25 2 -25 74 0 67 2 75 25 90 33 21 61 20 85 -4 18 -18 20
-33 20 -135 l0 -115 75 0 75 0 0 44 c0 39 -3 45 -22 48 -22 3 -23 9 -28 99 -6
112 -21 142 -79 160 -49 14 -98 6 -144 -25 -29 -20 -37 -22 -41 -10 -7 19 -67
44 -104 44 -15 0 -44 -9 -65 -19z"/>
<path d="M2920 1724 c-42 -14 -90 -38 -90 -45 0 -4 5 -20 12 -34 8 -18 16 -24
27 -19 9 4 41 9 72 11 43 4 59 1 72 -12 35 -35 22 -45 -59 -45 -73 0 -77 -1
-110 -34 -26 -26 -34 -42 -34 -71 0 -50 52 -104 102 -106 54 -2 82 2 97 14 11
9 15 9 18 0 3 -9 27 -13 74 -13 l69 0 0 44 c0 39 -3 45 -22 48 -22 3 -23 9
-28 98 -3 52 -10 105 -17 116 -22 39 -127 66 -183 48z m110 -228 c0 -30 -19
-45 -64 -53 -56 -9 -85 26 -50 61 10 10 33 16 65 16 45 0 49 -2 49 -24z"/>
<path d="M3340 1708 c-59 -30 -90 -84 -90 -156 0 -61 17 -99 59 -135 54 -45
121 -57 184 -32 27 11 22 -31 -8 -60 -28 -29 -77 -32 -137 -11 -37 13 -38 13
-58 -21 l-20 -34 46 -21 c62 -27 179 -23 220 8 67 49 69 57 72 275 l4 199 -49
0 c-26 0 -77 3 -113 6 -55 5 -72 2 -110 -18z m147 -90 c18 -17 23 -32 23 -69
0 -40 -4 -51 -27 -69 -21 -17 -36 -20 -63 -16 -45 7 -70 38 -70 88 0 76 83
117 137 66z"/>
<path d="M1400 1675 c0 -43 1 -45 30 -45 l31 0 -3 -82 c-3 -82 -3 -83 -30 -86
-26 -3 -28 -7 -28 -48 l0 -44 100 0 100 0 0 45 c0 38 -3 45 -20 45 -19 0 -20
7 -20 130 l0 130 -80 0 -80 0 0 -45z"/>
<path d="M1810 1675 c0 -41 2 -45 25 -45 25 0 25 -1 25 -85 0 -84 0 -85 -25
-85 -23 0 -25 -4 -25 -45 l0 -45 100 0 100 0 0 44 c0 39 -3 45 -22 48 -22 3
-23 7 -26 131 l-3 127 -74 0 -75 0 0 -45z"/>
<path d="M1050 1045 c0 -3 17 -45 39 -95 200 -464 605 -792 1111 -902 89 -19
135 -22 300 -22 165 0 211 3 300 23 317 68 559 200 785 426 159 158 259 307
339 505 14 35 26 65 26 67 0 2 -13 3 -29 3 -25 0 -31 -5 -42 -37 -21 -67 -100
-215 -162 -308 -84 -124 -265 -303 -393 -388 -280 -186 -589 -267 -932 -245
-256 16 -493 98 -722 249 -122 81 -304 262 -388 386 -60 88 -172 304 -172 331
0 7 -13 12 -30 12 -16 0 -30 -2 -30 -5z"/>
</g>
</svg>
